<?xml version="1.0" encoding="UTF-8"?>
<svg width="100" height="100" viewBox="0 0 100 100" xmlns="http://www.w3.org/2000/svg">
  <style>
    .medical-pattern {
      fill: #000000;
      opacity: 0.03;
    }
    @media (prefers-color-scheme: dark) {
      .medical-pattern {
        fill: #ffffff;
      }
    }
  </style>
  <defs>
    <pattern id="medical-pattern" x="0" y="0" width="50" height="50" patternUnits="userSpaceOnUse">
      <!-- Medical Cross -->
      <path class="medical-pattern" d="M22 15h6v7h7v6h-7v7h-6v-7h-7v-6h7v-7z"/>
      <!-- Heartbeat Line -->
      <path class="medical-pattern" d="M0 25h15l5-10 5 20 5-10h20" stroke-width="1.5"/>
      <!-- DNA Helix Symbol -->
      <path class="medical-pattern" d="M45 10c-5 5-5 15 0 20M35 10c5 5 5 15 0 20" stroke-width="1.5"/>
      <!-- Stethoscope -->
      <path class="medical-pattern" d="M10 40a5 5 0 1 0 10 0 5 5 0 1 0-10 0"/>
    </pattern>
  </defs>
  <rect width="100%" height="100%" fill="url(#medical-pattern)"/>
</svg> 